<?xml version="1.0" encoding="UTF-8"?>
<svg width="131px" height="45px" viewBox="0 0 131 45" version="1.1" xmlns="http://www.w3.org/2000/svg" xmlns:xlink="http://www.w3.org/1999/xlink">
    <!-- Generator: Sketch 63.1 (92452) - https://sketch.com -->
    <title>logo/logomark</title>
    <desc>Created with Sketch.</desc>
    <g id="mobile" stroke="none" stroke-width="1" fill="none" fill-rule="evenodd">
        <g id="onboarding---choose-one" transform="translate(-122.000000, -253.000000)">
            <g id="logo/logomark-copy-2" transform="translate(122.000000, 249.000000)">
                <g id="Group-9" transform="translate(0.000000, 4.666667)">
                    <path d="M63.0596747,33.2697816 C56.8513145,33.2697816 51.818585,28.2244658 51.818585,21.9995304 C51.818585,15.7755342 56.8513145,10.7292792 63.0596747,10.7292792 C69.2680348,10.7292792 74.3007644,15.7755342 74.3007644,21.9995304 C74.3007644,28.2244658 69.2680348,33.2697816 63.0596747,33.2697816 M85.9971182,1.8558347 C85.9732309,1.45761916 85.7320158,1.22188307 85.3348306,1.20826485 L75.4684325,1.20732566 C75.4258101,1.20732566 75.383656,1.20732566 75.3419703,1.21155201 C75.0136368,1.24677154 74.9082516,1.39046725 74.8567299,1.49518666 C74.8014612,1.61070674 74.7668012,1.77318619 74.761649,1.94270956 C74.7490028,2.3709791 74.7513447,2.79830946 74.7536866,3.22657901 L74.7550917,3.84221648 C74.7555601,3.9394224 74.7564969,4.05963841 74.7288625,4.18689833 C74.6492381,4.56210378 74.3405765,4.82460672 73.9780514,4.82460672 C73.7991307,4.82460672 73.6253622,4.76308993 73.4764178,4.64663066 C73.4056926,4.590749 73.3424615,4.52547546 73.2811038,4.45832355 L73.2398865,4.41465133 C72.4042988,3.54965954 71.4286659,2.78656962 70.3410905,2.1436957 C68.1828013,0.86968772 65.7743978,0.177976051 62.9767716,0.0277060343 C62.63345,0.00939187603 62.2910652,0 61.9496171,0 C60.0859381,0 58.2133599,0.27799953 56.3834041,0.82648509 C52.6148288,1.95632778 49.3647488,4.08875323 46.7226243,7.16600141 C43.5854235,10.8199108 41.7938749,15.2528763 41.3976264,20.3413947 C41.248682,22.2573374 41.358751,24.2216483 41.7254916,26.1789152 C42.5081524,30.3521954 44.2819027,34.0244189 46.998031,37.0927448 C48.9788047,39.3303592 51.2916589,41.0509509 53.8738309,42.2075605 C56.5295383,43.3961024 59.2199058,44 61.8699927,44 C63.2118977,44 64.5734747,43.845034 65.9181901,43.5402677 C68.7963774,42.8880019 71.2684804,41.4637239 73.2665841,39.3073491 L73.2993706,39.2707208 C73.3574496,39.2049777 73.4183388,39.1406433 73.4871905,39.0885184 C73.6319195,38.9762855 73.8024094,38.9166471 73.9780514,38.9166471 C74.3326141,38.9166471 74.6319081,39.1552008 74.7223052,39.5111529 C74.7574336,39.649683 74.7560285,39.7760038 74.7546233,39.9229866 L74.7536866,40.6996948 C74.7518131,41.2035689 74.7499396,41.7069735 74.7593071,42.210378 C74.7672696,42.6386476 74.9958384,42.8607654 75.4398614,42.8725053 L85.2594217,42.8734445 C85.3015757,42.8734445 85.3432615,42.8725053 85.3830736,42.8696877 C85.7067234,42.8452688 85.8968851,42.6827894 85.9652684,42.3747359 C85.9914976,42.2573374 85.9971182,42.1206856 85.9971182,41.9506927 C85.9989917,35.3078187 85.9994601,2.08969242 85.9994601,2.08969242 C86.0001201,2.01080066 86.0008652,1.9319089 85.9971182,1.8558347" id="Fill-1" fill="#FFFFFF"></path>
                    <path d="M113.773501,44 C107.773834,43.8807194 102.862405,41.896622 98.7585887,37.9373499 C96.958596,36.2002668 95.4832225,34.2063077 94.3727562,32.0122952 C93.3910261,30.0714019 92.6996474,27.9525268 92.3180693,25.7153103 C92.0823615,24.3332515 91.9772423,22.9511927 92.0041009,21.6090506 C92.068006,18.4870911 92.7269691,15.5346603 93.9638563,12.8334703 C96.069482,8.23553018 99.4096795,4.69890602 103.892759,2.32033726 C105.758509,1.33087144 107.790505,0.660270025 110.104054,0.273312343 C111.187198,0.0915737233 112.301369,0 113.416466,0 C114.123127,0 114.845069,0.0366294893 115.563769,0.109888468 C118.133864,0.370521373 120.618753,1.11344255 122.949898,2.32033726 C125.469981,3.62444101 127.699249,5.3939271 129.577039,7.57666898 C129.657615,7.67059075 129.740043,7.76404291 129.822008,7.85655585 C129.914161,7.9603394 130.006777,8.06506217 130.096152,8.17025455 C130.611097,8.77933721 130.570346,9.5278937 129.991959,10.0754576 C128.054894,11.9125674 126.116441,13.7477987 124.177061,15.5811516 C123.91681,15.8272266 123.607472,15.9563691 123.281001,15.9563691 C122.880899,15.9563691 122.506267,15.7628902 122.22703,15.4116228 L122.037167,15.1721223 C121.682911,14.7236459 121.316614,14.2596723 120.908178,13.835146 C119.367973,12.2333102 117.569369,11.203458 115.562843,10.7732963 C114.820988,10.6145685 114.079597,10.5337958 113.359507,10.5337958 C111.442355,10.5337958 109.610873,11.1006137 107.916,12.2196916 C105.145854,14.0478788 103.470893,16.6626608 102.937424,19.9912482 C102.321065,23.8415711 103.297701,27.2297988 105.8414,30.0629489 C107.588602,32.0094776 109.822501,33.1238593 112.480581,33.3779177 C112.838079,33.4117295 113.19604,33.4281659 113.544739,33.4281659 C115.735572,33.4281659 117.768031,32.7514595 119.585621,31.4140136 C120.488164,30.7499867 121.28883,29.9183094 122.034389,28.8706121 C122.17146,28.6771333 122.308995,28.4836544 122.452087,28.2967501 C122.706318,27.9637974 123.081413,27.7726666 123.481051,27.7726666 C123.798261,27.7726666 124.107599,27.8957041 124.353031,28.1197076 C124.975874,28.6888735 125.595012,29.2641443 126.214151,29.8394151 L130.176265,33.5136347 C130.254525,33.5859544 130.332786,33.6587438 130.403637,33.7371685 C130.582849,33.9372218 130.666204,34.1316399 130.666667,34.3481296 C130.666667,34.5223544 130.666204,34.6965793 130.663888,34.8712738 C130.66111,35.0506644 130.599057,35.2140883 130.468931,35.3817386 C128.071565,38.4774001 125.162495,40.7850579 121.822298,42.2399061 C119.981554,43.0424676 118.076905,43.564203 116.160679,43.7929025 C115.517924,43.8689791 114.859887,43.9182881 114.330587,43.956796 C114.126831,43.9722931 113.938358,43.9863813 113.773501,44" id="Fill-3" fill="#FFFFFF"></path>
                    <path d="M13.264657,44 C13.1895713,43.9625001 13.0908475,43.9146878 12.9689491,43.8935941 C12.6477492,43.8368756 12.3719714,43.6475013 12.193527,43.359221 C12,43.0460971 11.9483398,42.6542235 12.0535525,42.2862561 C12.1170509,42.0636006 12.1810128,41.8742263 12.2486826,41.7092269 C14.2940726,36.6851822 15.8514057,32.8344147 17.4008593,29.0019283 C19.0022241,25.0414736 20.5947825,21.1016438 22.7106233,15.9088498 L24.575715,11.3277723 C25.8359496,8.23122077 27.0961843,5.13513801 28.3615174,2.03952401 C28.7772697,1.02515261 29.5151489,0.393748602 30.6177963,0.108749614 C30.7387677,0.0778122237 31.0608946,0 31.0608946,0 L39.9974833,0 L40.0906451,0.0248436618 C40.2023467,0.0539060586 40.3140483,0.0834372037 40.4271403,0.108749614 C41.0361688,0.247967869 41.4259655,0.862496937 41.3142639,1.50890089 C41.2730131,1.74843129 41.2016354,1.99311792 41.1038386,2.23358582 C38.3882391,8.90528088 36.1370586,14.4604174 33.9034908,19.9700853 C31.4817453,25.9456891 29.0813204,31.8683243 26.133975,39.1039236 L25.7330544,40.0915764 C25.4860132,40.7004805 25.2394355,41.3103221 24.9882228,41.9182886 C24.5641277,42.9443787 23.8197596,43.5870327 22.7134042,43.8837504 C22.6109725,43.9114066 22.5127122,43.9498439 22.4149154,43.9882813 L22.3847884,44 L13.264657,44 Z" id="Fill-5" fill="#FFFFFF"></path>
                    <path d="M9.72133078,20.6666667 C9.72133078,20.6666667 9.38600773,20.5867506 9.27794373,20.5588729 C8.17457784,20.2773082 7.43621782,19.6509892 7.02065842,18.6446043 L6.41401589,17.1703387 L6.36067958,17.1703387 C4.46793634,12.5454287 2.5130447,7.7713729 0.229323128,2.21395384 C0.131462597,1.97699341 0.060965912,1.73492206 0.0192244535,1.49517386 C-0.0930136903,0.854451439 0.297037049,0.245788369 0.906462342,0.107793765 C1.01962807,0.0822392086 1.13233001,0.0534322542 1.24503195,0.0232314149 L1.33686316,0 L10.2788111,0 C10.2788111,0 10.6053221,0.0775929257 10.7221982,0.107793765 C11.8255641,0.389823141 12.5639241,1.01614209 12.9794835,2.02252698 C13.5105276,3.30768885 14.0392528,4.5942446 14.5670503,5.88126499 L15.3077293,7.6826289 L15.3531811,7.6826289 C16.7260113,11.0349221 18.1660916,14.547512 19.7708188,18.4522482 C19.8686793,18.6901379 19.939176,18.9317446 19.9809175,19.1710282 C20.0926918,19.8117506 19.7026411,20.4218076 19.0936796,20.5588729 C18.9805138,20.5848921 18.8678119,20.6141637 18.7555738,20.6429706 L18.6632788,20.6666667 L9.72133078,20.6666667 Z" id="Fill-7" fill="#F4CC06"></path>
                </g>
            </g>
        </g>
    </g>
</svg>